<?xml version="1.0" encoding="UTF-8"?>
<svg width="217px" height="454px" viewBox="0 0 217 454" version="1.1" xmlns="http://www.w3.org/2000/svg" xmlns:xlink="http://www.w3.org/1999/xlink">
    <!-- Generator: Sketch 55.1 (78136) - https://sketchapp.com -->
    <title>bg</title>
    <desc>Created with Sketch.</desc>
    <g id="final" stroke="none" stroke-width="1" fill="none" fill-rule="evenodd">
        <g id="discover-web-copy" transform="translate(-4.000000, -119.000000)">
            <g id="bg" transform="translate(0.000000, 107.000000)">
                <rect id="Rectangle" x="0" y="0" width="256" height="512"></rect>
                <g id="Group">
                    <rect id="Rectangle" x="0" y="0" width="96" height="96"></rect>
                    <g id="noun_Clapperboard_1674759" opacity="0.200000003" transform="translate(16.000000, 12.000000)" fill="#FFFFFF" fill-rule="nonzero">
                        <path d="M0.2136,21.456 L2.3064,28.4584 L2.3064,38.82 L2.3064,66.4368 C2.3064,69.504 4.8016,72 7.8696,72 L57.5488,72 C60.6168,72 63.1128,69.504 63.1128,66.4368 L63.1128,38.928 C63.1232,38.8232 63.1232,38.7176 63.1128,38.6128 L63.1128,28.1664 C63.1128,27.2832 62.396,26.5664 61.5128,26.5664 L15.32,26.5664 L59.58,13.34 C60.4272,13.0872 60.908,12.1952 60.6552,11.3488 L58.4728,4.0448 C58.0976,2.7888 57.2008,1.7848 56.0696,1.2248 C56.008,1.1944 55.9448,1.1664 55.88,1.144 C55.3072,0.892 54.6864,0.74 54.0384,0.74 C53.5896,0.74 53.1432,0.8056 52.7112,0.9344 L3.3232,15.6928 C0.8784,16.424 -0.5168,19.0088 0.2136,21.456 Z M18.1416,29.7664 L22.5032,33.2656 C22.7984,33.5024 23.1528,33.6176 23.504,33.6176 C23.972,33.6176 24.4368,33.4128 24.7528,33.0184 C25.3056,32.3296 25.196,31.3224 24.5064,30.7688 L23.256,29.7656 L32.9392,29.7656 L42.232,37.2192 L32.5472,37.2192 L28.032,33.5968 C27.3448,33.0456 26.336,33.1536 25.7824,33.844 C25.2296,34.5328 25.3392,35.54 26.0288,36.0936 L27.4328,37.22 L17.7504,37.22 L8.4576,29.7664 L18.1416,29.7664 Z M5.5064,31.5008 L12.6368,37.22 L5.5064,37.22 L5.5064,31.5008 Z M59.9128,66.4368 C59.9128,67.74 58.8528,68.8 57.5488,68.8 L7.8696,68.8 C6.5664,68.8 5.5064,67.74 5.5064,66.4368 L5.5064,40.42 L59.9128,40.42 L59.9128,66.4368 L59.9128,66.4368 Z M59.9128,35.432 L59.3184,34.9552 C58.6304,34.4032 57.624,34.5128 57.0688,35.2024 C56.5864,35.8048 56.6096,36.648 57.0824,37.2208 L47.3448,37.2208 L38.052,29.7672 L47.736,29.7672 L54.076,34.852 C54.3712,35.0888 54.7248,35.204 55.076,35.204 C55.5448,35.204 56.0088,34.9992 56.3256,34.6048 C56.8776,33.9152 56.768,32.908 56.0776,32.3552 L52.8496,29.7664 L59.912,29.7664 L59.912,35.432 L59.9128,35.432 Z M37.992,8.6728 L37.6472,9.172 C37.1448,9.8992 37.328,10.8952 38.0544,11.3976 C38.3328,11.5888 38.6488,11.6808 38.9624,11.6808 C39.4704,11.6808 39.9704,11.4392 40.28,10.9896 L42.8912,7.208 L52.1736,4.4344 L45.404,14.236 L36.1232,17.0096 L37.6848,14.748 C38.1872,14.0208 38.004,13.0248 37.2776,12.5224 C36.548,12.0208 35.5536,12.2024 35.052,12.9304 L31.2232,18.4744 L21.9456,21.2464 L28.7144,11.4448 L37.992,8.6728 Z M50.304,12.7728 L55.496,5.256 L57.132,10.7328 L50.304,12.7728 Z M4.24,18.7592 L9.636,17.1472 L8.0672,19.4184 C7.5648,20.1456 7.7472,21.1424 8.4744,21.644 C8.752,21.836 9.0688,21.9272 9.3824,21.9272 C9.8904,21.9272 10.3904,21.6864 10.7,21.2368 L14.536,15.6824 L23.8144,12.9096 L17.0456,22.7112 L7.7672,25.484 L8.1776,24.8896 C8.68,24.1624 8.4968,23.1664 7.7704,22.664 C7.0432,22.1608 6.0456,22.344 5.5448,23.0712 L4.492,24.596 L3.2792,20.54 C3.0528,19.7832 3.484,18.9848 4.24,18.7592 Z" id="Shape"></path>
                        <path d="M12.8288,51.28 L27.0664,51.28 C27.9496,51.28 28.6664,50.5632 28.6664,49.68 C28.6664,48.7968 27.9496,48.08 27.0664,48.08 L12.8288,48.08 C11.9456,48.08 11.2288,48.7968 11.2288,49.68 C11.2288,50.5632 11.9456,51.28 12.8288,51.28 Z" id="Path"></path>
                        <path d="M32.5208,51.28 L37.7856,51.28 C38.6688,51.28 39.3856,50.5632 39.3856,49.68 C39.3856,48.7968 38.6688,48.08 37.7856,48.08 L32.5208,48.08 C31.6376,48.08 30.9208,48.7968 30.9208,49.68 C30.9208,50.5632 31.6376,51.28 32.5208,51.28 Z" id="Path"></path>
                        <path d="M12.8288,61.1408 L37.7856,61.1408 C38.6688,61.1408 39.3856,60.424 39.3856,59.5408 C39.3856,58.6576 38.6688,57.9408 37.7856,57.9408 L12.8288,57.9408 C11.9456,57.9408 11.2288,58.6576 11.2288,59.5408 C11.2288,60.424 11.9456,61.1408 12.8288,61.1408 Z" id="Path"></path>
                    </g>
                </g>
                <g id="Group-4" opacity="0.200000003" transform="translate(0.000000, 256.000000)">
                    <rect id="Rectangle" x="0" y="0" width="96" height="96"></rect>
                    <path d="M91.861,33.60675 L88.243,29.98875 C87.657,29.40275 86.708,29.40275 86.122,29.98875 C85.165,30.94575 83.496,30.94675 82.539,29.98775 C82.06,29.50975 81.797,28.87375 81.797,28.19775 C81.797,27.52175 82.061,26.88575 82.539,26.40775 C82.82,26.12675 82.978,25.74475 82.978,25.34675 C82.978,24.94875 82.82,24.56775 82.539,24.28575 L80.128,21.87575 C79.565,21.31275 78.568,21.31375 78.007,21.87575 C77.051,22.83275 75.382,22.83175 74.426,21.87475 C73.947,21.39675 73.684,20.76075 73.684,20.08475 C73.684,19.40775 73.948,18.77175 74.426,18.29275 C74.707,18.01175 74.865,17.62975 74.865,17.23175 C74.865,16.83375 74.707,16.45175 74.426,16.17075 L72.016,13.76175 C71.43,13.17675 70.481,13.17675 69.895,13.76175 C68.938,14.71775 67.269,14.71775 66.312,13.76075 C65.326,12.77375 65.326,11.16575 66.312,10.17875 C66.898,9.59275 66.898,8.64275 66.312,8.05675 L62.693,4.43875 C62.107,3.85375 61.158,3.85375 60.572,4.43875 L45.537,19.47475 C45.536,19.47575 45.534,19.47575 45.533,19.47675 C45.532,19.47775 45.532,19.47875 45.531,19.48075 L4.439,60.57275 C4.158,60.85375 4,61.23575 4,61.63375 C4,62.03175 4.158,62.41275 4.439,62.69475 L8.058,66.31275 C8.644,66.89775 9.593,66.89775 10.179,66.31275 C11.136,65.35675 12.804,65.35675 13.761,66.31275 C14.748,67.30075 14.748,68.90775 13.761,69.89475 C13.175,70.47975 13.175,71.42975 13.761,72.01575 L16.17,74.42575 C16.756,75.01175 17.706,75.01175 18.29,74.42675 C19.25,73.46875 20.918,73.46975 21.874,74.42675 C22.353,74.90475 22.616,75.54075 22.616,76.21675 C22.616,76.89375 22.352,77.52975 21.874,78.00875 C21.593,78.28975 21.435,78.67175 21.435,79.06975 C21.435,79.46775 21.593,79.84875 21.874,80.13075 L24.283,82.53975 C24.869,83.12575 25.819,83.12475 26.403,82.54075 C27.362,81.58375 29.03,81.58375 29.987,82.54075 C30.973,83.52775 30.973,85.13575 29.987,86.12275 C29.401,86.70875 29.401,87.65875 29.987,88.24375 L33.606,91.86275 C33.887,92.14375 34.269,92.30175 34.667,92.30175 C35.065,92.30175 35.446,92.14375 35.728,91.86275 L76.821,50.76975 C76.821,50.76975 76.822,50.76875 76.823,50.76875 L76.824,50.76675 L91.861,35.72975 C92.447,35.14275 92.447,34.19275 91.861,33.60675 Z M34.668,88.67975 L33.023,87.03475 C34.203,84.92875 33.898,82.20675 32.109,80.41775 C31.065,79.37275 29.675,78.79675 28.197,78.79675 C27.233,78.79675 26.307,79.04175 25.49,79.50175 L24.912,78.92375 C25.372,78.10575 25.617,77.17975 25.617,76.21575 C25.617,74.73775 25.041,73.34875 23.996,72.30375 C22.951,71.25875 21.561,70.68275 20.083,70.68275 C19.12,70.68275 18.194,70.92775 17.377,71.38675 L16.797,70.80675 C17.977,68.70075 17.672,65.97875 15.883,64.18875 C14.838,63.14475 13.448,62.56875 11.971,62.56875 C11.007,62.56875 10.081,62.81375 9.264,63.27275 L7.621,61.63075 L46.595,22.65675 L73.642,49.70375 L34.668,88.67975 Z M75.762,47.58475 L48.715,20.53775 L61.631,7.62175 L63.276,9.26575 C62.096,11.37275 62.401,14.09375 64.19,15.88275 C65.235,16.92775 66.626,17.50375 68.103,17.50375 C69.067,17.50375 69.993,17.25875 70.81,16.79975 L71.388,17.37775 C70.928,18.19475 70.683,19.12075 70.683,20.08475 C70.683,21.56275 71.259,22.95175 72.304,23.99675 C73.349,25.04175 74.739,25.61775 76.217,25.61775 C77.18,25.61775 78.106,25.37275 78.922,24.91375 L79.501,25.49175 C79.041,26.30875 78.796,27.23475 78.796,28.19875 C78.796,29.67675 79.372,31.06575 80.416,32.10975 C81.461,33.15575 82.851,33.73175 84.33,33.73175 C85.293,33.73175 86.22,33.48675 87.037,33.02675 L88.679,34.66875 L75.762,47.58475 Z M20.189,56.61775 C19.603,57.20275 19.603,58.15275 20.189,58.73875 L37.56,76.11075 C37.841,76.39175 38.223,76.54975 38.621,76.54975 C39.019,76.54975 39.4,76.39175 39.682,76.11075 L65.09,50.70175 C65.371,50.42075 65.529,50.03875 65.529,49.64075 C65.529,49.24275 65.371,48.86175 65.09,48.57975 L47.718,31.20975 C47.132,30.62375 46.183,30.62375 45.597,31.20975 L20.189,56.61775 Z M61.909,49.64075 L38.621,72.92875 L23.371,57.67875 L46.658,34.39075 L61.909,49.64075 Z M29.929,60.70075 C30.222,60.99375 30.606,61.13975 30.99,61.13975 C31.374,61.13975 31.758,60.99375 32.051,60.70075 L47.348,45.40475 C47.934,44.81975 47.934,43.86975 47.348,43.28375 C46.762,42.69775 45.813,42.69775 45.227,43.28375 L29.929,58.57975 C29.343,59.16475 29.343,60.11475 29.929,60.70075 Z M45.581,54.26675 L35.6,64.24775 C35.014,64.83275 35.014,65.78375 35.6,66.36875 C35.893,66.66175 36.277,66.80775 36.661,66.80775 C37.045,66.80775 37.429,66.66175 37.722,66.36875 L47.703,56.38775 C48.289,55.80275 48.289,54.85175 47.703,54.26675 C47.116,53.68075 46.167,53.68075 45.581,54.26675 Z" id="Shape" fill="#FFFFFF" fill-rule="nonzero"></path>
                </g>
                <g id="Group-7" opacity="0.200000003" transform="translate(128.000000, 384.000000)">
                    <g id="noun_Cinema_1206308" transform="translate(3.000000, 14.000000)" fill="#FFFFFF" fill-rule="nonzero">
                        <path d="M31.47,67.61 L50.07,67.61 C63.8611592,67.571546 75.031546,56.4011592 75.07,42.61 L75.07,12.61 C75.0755099,8.11668639 78.7166864,4.47550989 83.21,4.47 L87.72,4.47 C88.8245695,4.47 89.72,3.5745695 89.72,2.47 C89.72,1.3654305 88.8245695,0.47 87.72,0.47 L83.25,0.47 C76.5786305,0.475307826 71.1594155,5.85881141 71.11,12.53 L71.11,42.53 C71.071585,54.1120304 61.6920304,63.491585 50.11,63.53 L46.74,63.53 C60.4320649,55.839292 66.280363,39.1749684 60.397312,24.6144278 C54.5142609,10.0538873 38.7311382,2.12953811 23.5395753,6.10899138 C8.34801248,10.0884447 -1.52315746,24.7329753 0.48780112,40.3078164 C2.4987597,55.8826575 15.7658752,67.5396692 31.47,67.53 L31.47,67.61 Z M31.47,9.13999815 C42.4893705,9.13595545 52.4257641,15.7712856 56.6445631,25.9510831 C60.8633622,36.1308806 58.533459,47.8497147 50.7415869,55.6415869 C42.9497147,63.433459 31.2308806,65.7633622 21.0510831,61.5445631 C10.8712856,57.3257641 4.23595545,47.3893705 4.23999815,36.37 C4.26202947,21.3404206 16.4404206,9.16202947 31.47,9.13999815 Z" id="Shape"></path>
                        <circle id="Oval" cx="31.47" cy="20.75" r="7.92"></circle>
                        <circle id="Oval" cx="31.47" cy="52" r="7.92"></circle>
                        <circle id="Oval" cx="31.47" cy="36.37" r="3.95"></circle>
                        <circle id="Oval" cx="47.1" cy="36.37" r="7.92"></circle>
                        <circle id="Oval" cx="15.85" cy="36.37" r="7.92"></circle>
                    </g>
                    <rect id="Rectangle" x="0" y="0" width="96" height="96"></rect>
                </g>
                <g id="Group-2" opacity="0.200000003" transform="translate(128.000000, 128.000000)">
                    <rect id="Rectangle" x="0" y="0" width="96" height="96"></rect>
                    <g id="noun_Movie_2524043" transform="translate(5.000000, 3.000000)" fill="#FFFFFF" fill-rule="nonzero">
                        <path d="M51,54 C50.9934314,52.0180058 49.6883667,50.2746686 47.7885,49.71 C48.8873677,48.3856545 49.4923155,46.7208551 49.5,45 C49.4955026,41.4373488 46.9896252,38.367649 43.5,37.65 C43.5,37.6005 43.5,37.5495 43.5,37.5 C43.5006877,35.0300337 42.2852186,32.7180828 40.2501251,31.3183941 C38.2150316,29.9187054 35.6212609,29.6107519 33.315,30.495 C31.8354054,28.1423438 29.1728393,26.804647 26.4021005,27.0218981 C23.6313618,27.2391492 21.2098278,28.9754857 20.115,31.53 C16.325323,31.195074 12.8918299,33.7685772 12.15,37.5 L12,37.5 C7.85992027,37.5049592 4.50495917,40.8599203 4.5,45 C4.50768454,46.7208551 5.11263235,48.3856545 6.2115,49.71 C4.32465638,50.2624853 3.02032588,51.9829707 2.99761398,53.9489097 C2.97548868,55.9148487 4.24024595,57.6646307 6.114,58.26 L9.0075,88.65 C9.0845348,89.4164866 9.72965201,90 10.5,90 L43.5,90 C44.2729525,90 44.9190696,89.4119567 44.9925,88.6425 L47.886,58.2585 C49.7368009,57.6633087 50.9939317,55.9441399 51,54 Z M12,40.5 C12.3857461,40.5067816 12.7689674,40.5637605 13.14,40.6695 C13.6000924,40.7907333 14.0904171,40.6864948 14.4614029,40.3885819 C14.8323887,40.0906691 15.0400349,39.6344158 15.021,39.159 C15.0223052,39.1052307 15.0152201,39.0515867 15,39 L15,39 C15,36.5147186 17.0147186,34.5 19.5,34.5 C19.9146636,34.5082366 20.3261422,34.5743761 20.7225,34.6965 C21.1223752,34.810257 21.5515276,34.7529524 21.9075451,34.5382613 C22.2635627,34.3235702 22.5145095,33.9707511 22.6005,33.564 C23.0126234,31.5894803 24.6933361,30.1337658 26.7064635,30.0077046 C28.719591,29.8816434 30.5687747,31.1163173 31.224,33.024 C31.3769445,33.4641632 31.7257657,33.8082491 32.1679781,33.9551635 C32.6101904,34.1020779 33.0955665,34.0351339 33.4815,33.774 C35.0263325,32.6899606 37.0863819,32.6961241 38.6247001,33.789388 C40.1630184,34.8826518 40.8462568,36.8261092 40.3305,38.6415 C40.2087874,39.1015367 40.3125819,39.5920365 40.6102132,39.963336 C40.9078446,40.3346355 41.3640017,40.5426837 41.8395,40.524 C41.8940397,40.5262842 41.9485142,40.5181384 42,40.5 C44.4852814,40.5 46.5,42.5147186 46.5,45 C46.5,47.4852814 44.4852814,49.5 42,49.5 L12,49.5 C9.51471863,49.5 7.5,47.4852814 7.5,45 C7.5,42.5147186 9.51471863,40.5 12,40.5 L12,40.5 Z M7.5,52.5 L46.5,52.5 C47.3284271,52.5 48,53.1715729 48,54 C48,54.8284271 47.3284271,55.5 46.5,55.5 L7.5,55.5 C6.67157288,55.5 6,54.8284271 6,54 C6,53.1715729 6.67157288,52.5 7.5,52.5 Z M21.1365,58.5 L23.85,87 L19.3635,87 L16.65,58.5 L21.1365,58.5 Z M24.15,58.5 L28.638,58.5 L31.35,87 L26.8635,87 L24.15,58.5 Z M31.65,58.5 L36.138,58.5 L38.85,87 L34.3635,87 L31.65,58.5 Z M9.15,58.5 L13.638,58.5 L16.35,87 L11.8635,87 L9.15,58.5 Z M42.1365,87 L41.8635,87 L39.15,58.5 L44.85,58.5 L42.1365,87 Z" id="Shape"></path>
                        <path d="M9.273,34.8585 C9.67572406,34.7495457 10.0148771,34.4777885 10.209,34.1085 C11.7468572,31.2169726 14.5376608,29.201146 17.766,28.65 C18.1374618,28.5882674 18.4721172,28.3890804 18.7035,28.092 C20.1346535,26.2550881 22.1284118,24.9378588 24.3795,24.342 L23.6205,21.441 C20.9232559,22.1529546 18.5089036,23.6742269 16.7025,25.8 C13.004942,26.5954733 9.80546883,28.8943983 7.872,32.145 C4.6884482,33.1837635 1.9978205,35.3565521 0.312,38.25 L2.907,39.75 C4.30648797,37.3486958 6.59227297,35.5923468 9.273,34.8585 L9.273,34.8585 Z" id="Path"></path>
                        <rect id="Rectangle" x="15" y="43.5" width="3" height="3"></rect>
                        <rect id="Rectangle" x="25.5" y="36" width="3" height="3"></rect>
                        <rect id="Rectangle" x="33" y="43.5" width="3" height="3"></rect>
                        <path d="M84,19.5 C84,17.0147186 81.9852814,15 79.5,15 L58.5,15 L58.5,8.22 L65.4375,2.67 L63.5625,0.327 L56.0625,6.327 C55.7063835,6.61212066 55.499373,7.04380669 55.5,7.5 L55.5,15 L34.5,15 C32.2944067,14.9944504 30.4116835,16.5923527 30.0585912,18.7695064 C29.7054989,20.9466602 30.9867048,23.0576907 33.081,23.7495 L33.309,27.102 L36.309,26.898 L36.1065,24 L77.8935,24 L76.5645,43.5 L66.3645,43.5 C64.0851624,40.6597363 60.641765,39.0050523 57,39 C55.2142959,38.9984171 53.4516981,39.4036709 51.846,40.185 L53.154,42.885 C54.3521368,42.3017009 55.6674203,41.9990421 57,42 C59.9429902,42.0090376 62.6973908,43.4500334 64.383,45.8625 C64.6638267,46.2620814 65.1216058,46.4999251 65.61,46.5 L76.359,46.5 L75.75,55.5 L65.61,55.5 C65.1216058,55.5000749 64.6638267,55.7379186 64.383,56.1375 C62.6973908,58.5499666 59.9429902,59.9909624 57,60 C55.6674203,60.0009579 54.3521368,59.6982991 53.154,59.115 L51.846,61.815 C53.4516981,62.5963291 55.2142959,63.0015829 57,63 C60.6391344,62.9926792 64.0793103,61.3382182 66.357,58.5 L75.5415,58.5 L73.5915,87 L48,87 L48,90.0000041 L75,90.0000041 C75.7901751,90.0018289 76.4462701,89.3903483 76.5,88.602 L80.922,23.7495 C82.7531285,23.1396333 83.9914517,21.4299989 84,19.5 L84,19.5 Z M34.5,18 L79.5,18 C80.3284271,18 81,18.6715729 81,19.5 C81,20.3284271 80.3284271,21 79.5,21 L34.5,21 C33.6715729,21 33,20.3284271 33,19.5 C33,18.6715729 33.6715729,18 34.5,18 Z" id="Shape"></path>
                        <polygon id="Rectangle" transform="translate(81.818021, 76.499539) rotate(-86.110000) translate(-81.818021, -76.499539) " points="80.3142713 74.9987888 83.3217713 74.9987888 83.3217713 78.0002888 80.3142713 78.0002888"></polygon>
                        <polygon id="Rectangle" transform="translate(83.148152, 57.000284) rotate(-86.101000) translate(-83.148152, -57.000284) " points="68.1136522 55.4995345 98.1826522 55.4995345 98.1826522 58.5010345 68.1136522 58.5010345"></polygon>
                    </g>
                </g>
            </g>
        </g>
    </g>
</svg>