<?xml version="1.0" encoding="UTF-8"?>
<svg width="32px" height="32px" viewBox="0 0 32 32" version="1.1" xmlns="http://www.w3.org/2000/svg" xmlns:xlink="http://www.w3.org/1999/xlink">
    <!-- Generator: Sketch 55 (78076) - https://sketchapp.com -->
    <title>noun_Eye_2490672</title>
    <desc>Created with Sketch.</desc>
    <g id="final" stroke="none" stroke-width="1" fill="none" fill-rule="evenodd">
        <g id="watchlist-web--empty" transform="translate(-34.000000, -25.000000)" fill="#FFFFFF" fill-rule="nonzero">
            <g id="header-content" transform="translate(34.000000, 25.000000)">
                <g id="noun_Eye_2490672">
                    <path d="M16,8.08094578 C7.60423111,8.08094578 0.957464889,14.9900622 0.678734222,15.2840284 L0,16 L0.678734222,16.7159716 C0.957464889,17.0099627 7.60423111,23.9194027 16,23.9194027 C24.3954204,23.9194027 31.0425351,17.0099627 31.3212658,16.7159716 L32,16 L31.3212658,15.2840284 C31.0425351,14.9900622 24.3954204,8.08094578 16,8.08094578 Z M16,21.7956587 C12.7992566,21.7956842 10.2045142,19.2010018 10.2044658,16.0002584 C10.2044173,12.7995149 12.7990812,10.204754 15.9998246,10.2046827 C19.200568,10.2046113 21.7953475,12.7992566 21.7954418,16 C21.7918855,19.199295 19.1992949,21.7919827 16,21.7956587 L16,21.7956587 Z M9.91909689,11.4843733 C7.91246984,14.1605103 7.91246984,17.8397706 9.91909689,20.5159076 C7.36438437,19.3969739 5.00759963,17.8719557 2.94014933,16 C5.00766365,14.128201 7.36443752,12.6032847 9.91909689,11.4843733 L9.91909689,11.4843733 Z M22.0761493,20.5218524 C24.0870414,17.8454681 24.0888365,14.1626848 22.0805547,11.4843413 C24.6357499,12.6034674 26.9929882,14.1287452 29.0608498,16.0010204 C26.9935878,17.8772944 24.6344529,19.4042393 22.0761493,20.5218524 L22.0761493,20.5218524 Z" id="Shape"></path>
                    <path d="M19.1073138,15.4410382 C18.4139556,16.1343716 17.2064676,16.0510649 16.4103964,15.2549689 C15.6142578,14.45888 15.5309476,13.2514524 16.2243271,12.5581369 C16.3451072,12.4414823 16.4840445,12.3452337 16.6357049,12.2731556 C16.4258805,12.2346759 16.2131268,12.2143754 15.9998116,12.21248 C13.9079828,12.2125546 12.2122747,13.9083656 12.2123271,16.0001944 C12.2123795,18.0920231 13.9081724,19.7877492 16.0000012,19.7877191 C18.09183,19.787689 19.7875741,18.0919141 19.7875662,16.0000853 C19.787093,15.5338771 19.6995375,15.0718593 19.5294044,14.6378027 C19.4698624,14.940915 19.323171,15.2200677 19.1073138,15.4410382 L19.1073138,15.4410382 Z" id="Path"></path>
                    <path d="M15.1121529,0.888888889 L15.1121529,3.79374933 C15.1121529,4.28466911 15.510122,4.68263822 16.0010418,4.68263822 C16.4919616,4.68263822 16.8899307,4.28466911 16.8899307,3.79374933 L16.8899307,0.888888889 C16.8899307,0.397969111 16.4919616,0 16.0010418,0 C15.510122,0 15.1121529,0.397969111 15.1121529,0.888888889 Z" id="Path"></path>
                    <path d="M25.8072249,3.00679111 L24.7418169,5.72806044 C24.6258158,6.02382982 24.6764868,6.3590234 24.8747292,6.6072888 C25.0729717,6.85555419 25.3886427,6.97914253 25.7027491,6.93146674 C26.0168554,6.88379096 26.281637,6.67210018 26.3972836,6.376192 L27.4626916,3.65492622 C27.6401381,3.19816136 27.4144728,2.68394268 26.9581756,2.50529686 C26.5018784,2.32665104 25.9870687,2.55096482 25.8072249,3.00679111 L25.8072249,3.00679111 Z" id="Path"></path>
                    <path d="M5.03934578,2.50308267 C4.81978735,2.58900964 4.64336013,2.75864303 4.54888199,2.97465976 C4.45440384,3.19067648 4.44961524,3.43537859 4.53556978,3.65492622 L5.60097778,6.37617778 C5.71662431,6.67208596 5.98140592,6.88377674 6.29551226,6.93145252 C6.6096186,6.9791283 6.92528965,6.85553997 7.1235321,6.60727457 C7.32177454,6.35900918 7.37244553,6.02381559 7.25644444,5.72804622 L6.19103644,3.00679111 C6.01207728,2.54968817 5.49647097,2.32418035 5.03934578,2.50308267 Z" id="Path"></path>
                    <path d="M16.8899307,31.1111111 L16.8899307,28.2062507 C16.8899307,27.7153309 16.4919616,27.3173618 16.0010418,27.3173618 C15.510122,27.3173618 15.1121529,27.7153309 15.1121529,28.2062507 L15.1121529,31.1111111 C15.1121529,31.6020309 15.510122,32 16.0010418,32 C16.4919616,32 16.8899307,31.6020309 16.8899307,31.1111111 Z" id="Path"></path>
                    <path d="M26.9589333,29.4969173 C27.1784918,29.4109904 27.354919,29.241357 27.4493971,29.0253402 C27.5438753,28.8093235 27.5486639,28.5646214 27.4627093,28.3450738 L26.3972871,25.6238222 C26.2816406,25.327914 26.016859,25.1162233 25.7027526,25.0685475 C25.3886463,25.0208717 25.0729752,25.14446 24.8747328,25.3927254 C24.6764903,25.6409908 24.6258194,25.9761844 24.7418204,26.2719538 L25.8072284,28.9932231 C25.9861963,29.4503253 26.5018082,29.6758264 26.9589333,29.4969173 L26.9589333,29.4969173 Z" id="Path"></path>
                    <path d="M6.75266844,25.120096 C6.29553807,24.941185 5.77992221,25.1667049 5.60097778,25.6238222 L4.53556978,28.345088 C4.35659222,28.8022325 4.58209107,29.3179113 5.03923556,29.4968889 C5.49638005,29.6758664 6.01205887,29.4503676 6.19103644,28.9932231 L7.25644444,26.2719538 C7.34240342,26.0524045 7.33761712,25.8076988 7.24313868,25.5916787 C7.14866023,25.3756586 6.97223034,25.2060229 6.75266844,25.120096 Z" id="Path"></path>
                </g>
            </g>
        </g>
    </g>
</svg>